<svg width="128" height="128" viewBox="0 0 128 128" fill="none" xmlns="http://www.w3.org/2000/svg">
<path d="M97.3087 101.616C100.599 101.433 105.351 97.5943 105.351 97.5943C105.351 97.5943 108.64 94.6694 108.64 91.379V40.5675C108.64 37.6427 106.872 32.6336 104.985 30.1406C102.659 27.0686 97.6794 23.7353 94.2068 23.7353H34.2484C30.7758 23.7353 25.7957 27.0686 23.4701 30.1406C21.5828 32.6336 19.8148 37.6427 19.8148 40.5675V91.379C19.8148 94.6694 23.1046 97.5943 23.1046 97.5943C23.1046 97.5943 26.9427 101.433 30.2326 101.616C33.5224 101.799 75.4183 101.616 75.4183 101.616H97.3087Z" fill="#FC2C3B"/>
<path fill-rule="evenodd" clip-rule="evenodd" d="M103.34 12.5917C92.0741 5.17813 75.1937 4 69.8934 4H58.5617C53.2614 4 36.381 5.17813 25.1151 12.5917C18.5371 16.9203 15.0283 20.1042 10.6763 26.6674C5.80942 34.007 3.00003 41.4743 3.00003 47.8723L3 80C3 85.1184 5.80938 93.8653 10.6763 101.205C15.0283 107.768 18.537 110.952 25.115 115.281C36.381 122.694 53.2614 123.872 58.5617 123.872H69.8934C75.1937 123.872 92.0741 122.694 103.34 115.281C109.918 110.952 113.427 107.768 117.779 101.205C122.646 93.8653 125.455 86.398 125.455 80L125.455 47.8723C125.455 42.7539 122.646 34.007 117.779 26.6674C113.427 20.1042 109.918 16.9203 103.34 12.5917ZM105.351 97.5943C105.351 97.5943 100.599 101.433 97.3087 101.616H75.4183C75.4183 101.616 33.5224 101.799 30.2326 101.616C26.9427 101.433 23.1046 97.5943 23.1046 97.5943C23.1046 97.5943 19.8148 94.6694 19.8148 91.379V40.5675C19.8148 37.6427 21.5828 32.6336 23.4701 30.1406C25.7957 27.0686 30.7758 23.7353 34.2484 23.7353H94.2068C97.6794 23.7353 102.659 27.0686 104.985 30.1406C106.872 32.6336 108.64 37.6427 108.64 40.5675V91.379C108.64 94.6694 105.351 97.5943 105.351 97.5943Z" fill="#FC2C3B"/>
<path d="M93 85.5C95.5985 89.0358 96.4725 91.2229 98.5 95C101.267 100.156 101 100 101 100L92.4149 104.998C92.417 105.003 92.4122 105 92.4122 105L92.4149 104.998C92.4018 104.968 92.1094 104.611 88.5 101C85.5457 98.0447 84.1136 95.2352 80 94.5C76.2236 93.8251 74.2717 96.2988 70.5 97C63.1989 98.3574 58.7636 99.3286 51.5 97.7826C43.5064 96.0814 36.0632 92.6586 30 85C23.9049 77.3011 22.6402 70.8186 22.5 61C22.3579 51.0503 23.9064 44.6084 29.5 36.5C33.2146 31.1154 36.3572 28.6585 42 25.3492C49.4591 20.9748 54.7144 19.8135 63.3559 19.5C72.6285 19.1636 78.7052 19.5981 86.5834 24.5C91.9566 27.8431 94.7948 30.5435 98 36C101.368 41.7334 102.155 45.7811 102.5 52.4216C102.767 57.5555 102.468 60.5731 101 65.5C99.0744 71.9633 92.4122 80.4827 92.4122 80.4827C91.5278 76.7527 88.6203 73.1868 85.5835 71.3111C85.5835 71.3111 90.4956 59.5255 88.4828 52.29C86.092 43.6956 80.9408 38.5908 72.4413 35.788C64.0184 33.0105 56.5013 34.9313 50.0385 39.4115C42.3883 44.715 40.3423 50.68 40.2556 59.381C40.1784 67.1313 43.0043 72.3502 47.6767 77.7574C49.4835 79.8484 52.8335 82.5895 52.8335 82.5895C59.4593 87.361 66.2782 85.7796 73.3297 84.4589C70.3603 79.8535 68.0999 80.9222 64.5163 81.1815C62.6167 81.3189 61.2098 81.3269 59.7646 80.0711C56.8262 77.5178 59.0012 72.2378 63.3559 70.7129C71.1228 67.993 77.2932 70.5836 84.1046 75.3281C88.4347 78.3443 89.8749 81.2478 93 85.5Z" fill="white"/>
</svg>
