<svg width="128" height="128" viewBox="0 0 128 128" fill="none" xmlns="http://www.w3.org/2000/svg">
<path fill-rule="evenodd" clip-rule="evenodd" d="M125.455 52.8723V82.8517C125.455 93.616 121.8 104.605 118.875 108.444C115.951 112.283 108.823 119.046 102.792 119.046L97.3087 106.616C100.599 106.433 105.351 102.594 105.351 102.594C105.351 102.594 108.64 99.6694 108.64 96.379V45.5675C108.64 42.6427 106.872 37.6336 104.985 35.1406C102.659 32.0686 97.6794 28.7353 94.2068 28.7353H34.2484C30.7757 28.7353 25.7957 32.0686 23.4701 35.1406C21.5828 37.6336 19.8147 42.6427 19.8147 45.5675V96.379C19.8147 99.6694 23.1046 102.594 23.1046 102.594C23.1046 102.594 26.9427 106.433 30.2326 106.616C33.5224 106.799 75.4183 106.616 75.4183 106.616L86.2016 119.046H28.0393C22.008 119.046 14.9091 114.839 9.57968 108.444C2.99992 100.549 2.99995 93.653 3 82.9382L3 82.8517V52.8723C3 46.4743 5.80939 39.007 10.6763 31.6674C15.0283 25.1042 18.5371 21.9203 25.115 17.5917C36.381 10.1781 53.2614 9 58.5617 9H69.8934C75.1937 9 92.0741 10.1781 103.34 17.5917C109.918 21.9203 113.427 25.1042 117.779 31.6674C122.646 39.007 125.455 47.7539 125.455 52.8723Z" fill="#FC2C3B"/>
<path d="M75.4183 106.616L86.2016 119.046H102.792L97.3087 106.616H75.4183Z" fill="#FC2C3B"/>
<path d="M97.3087 106.616C100.599 106.433 105.351 102.594 105.351 102.594C105.351 102.594 108.64 99.6694 108.64 96.379V45.5675C108.64 42.6427 106.872 37.6336 104.985 35.1406C102.659 32.0686 97.6794 28.7353 94.2068 28.7353H34.2484C30.7757 28.7353 25.7957 32.0686 23.4701 35.1406C21.5828 37.6336 19.8147 42.6427 19.8147 45.5675V96.379C19.8147 99.6694 23.1046 102.594 23.1046 102.594C23.1046 102.594 26.9427 106.433 30.2326 106.616C33.5224 106.799 75.4183 106.616 75.4183 106.616H97.3087Z" fill="#FC2C3B"/>
<path d="M94.4423 104.361C92.5268 98.8479 91.9592 95.5531 89.5301 90.2461C87.6927 86.2317 87.2184 83.4407 84.1046 80.3281C78.2067 74.4327 71.1228 72.993 63.3559 75.7129C59.0012 77.2378 56.8262 82.5178 59.7646 85.0711C61.2098 86.3269 62.6167 86.3189 64.5163 86.1815C68.0999 85.9222 70.3603 84.8535 73.3297 89.4589C66.2782 90.7796 59.4593 92.361 52.8335 87.5895C52.8335 87.5895 49.4835 84.8484 47.6767 82.7574C43.0043 77.3502 40.1784 72.1313 40.2556 64.381C40.3423 55.68 42.3883 49.715 50.0385 44.4115C56.5013 39.9313 64.0184 38.0105 72.4413 40.788C80.9408 43.5908 86.092 48.6956 88.4828 57.29C90.4956 64.5255 85.5835 76.3111 85.5835 76.3111C88.6203 78.1868 91.5278 81.7527 92.4122 85.4827C92.4122 85.4827 99.0744 76.9633 101 70.5C102.468 65.5731 102.767 62.5555 102.5 57.4216C102.155 50.7811 101.368 46.7334 98 41C94.7948 35.5435 91.9566 32.8431 86.5834 29.5C78.7052 24.5981 72.6285 24.1636 63.3559 24.5C54.7144 24.8135 49.4591 25.9748 42 30.3492C36.3572 33.6585 33.2146 36.1154 29.5 41.5C23.9064 49.6084 22.3579 56.0503 22.5 66C22.6402 75.8186 23.9049 82.3011 30 90C36.0632 97.6586 43.5064 101.081 51.5 102.783C58.7636 104.329 64.4523 103.573 70.5 102C74.2224 101.032 76.261 98.6416 80 99.5C83.7776 100.367 85.5754 102.688 88.5 106C91.9124 109.864 92.5 111.5 95.5 116.5C96.041 117.402 98.7231 118.084 99 117.5C98 114.5 96.2247 109.491 94.4423 104.361Z" fill="white"/>
</svg>
