<svg width="41" height="41" viewBox="0 0 41 41" fill="none" xmlns="http://www.w3.org/2000/svg">
<mask id="mask0_29_7" style="mask-type:alpha" maskUnits="userSpaceOnUse" x="0" y="0" width="41" height="41">
<rect x="0.0814209" y="0.875427" width="40" height="40" fill="#D9D9D9"/>
</mask>
<g mask="url(#mask0_29_7)">
<path d="M14.0977 32.1985C13.0854 32.1985 12.2203 31.8395 11.5021 31.1213C10.784 30.4032 10.4249 29.538 10.4249 28.5258V6.77454C10.4249 5.75801 10.784 4.88915 11.5021 4.16795C12.2203 3.44673 13.0854 3.08612 14.0977 3.08612H30.8489C31.8654 3.08612 32.7343 3.44673 33.4555 4.16795C34.1767 4.88915 34.5373 5.75801 34.5373 6.77454V28.5258C34.5373 29.538 34.1767 30.4032 33.4555 31.1213C32.7343 31.8395 31.8654 32.1985 30.8489 32.1985H14.0977ZM7.64716 38.6647C6.63063 38.6647 5.76175 38.3041 5.04053 37.5829C4.31934 36.8617 3.95874 35.9928 3.95874 34.9763V9.55229H7.64716V34.9763H28.0712V38.6647H7.64716Z" fill="#E5E2E1"/>
</g>
</svg>
