<svg width="40" height="40" viewBox="0 0 40 40" fill="none" xmlns="http://www.w3.org/2000/svg">
<mask id="mask0_28_7" style="mask-type:alpha" maskUnits="userSpaceOnUse" x="0" y="0" width="40" height="40">
<rect width="40" height="40" fill="#D9D9D9"/>
</mask>
<g mask="url(#mask0_28_7)">
<path d="M25.4396 31.1728V28.1046H32.0036V31.1728H25.4396ZM25.4396 15.9016V12.8334H37.4203V15.9016H25.4396ZM25.4396 23.5489V20.4571H35.6147V23.5489H25.4396ZM4.40088 12.3611H2.59534V8.67269H9.85384V6.58936H16.5404V8.67269H23.791V12.3611H21.9855V28.6534C21.9855 29.6656 21.6249 30.5308 20.9037 31.2489C20.1824 31.9671 19.3136 32.3261 18.297 32.3261H8.07363C7.06143 32.3261 6.19627 31.9671 5.47813 31.2489C4.75996 30.5308 4.40088 29.6656 4.40088 28.6534V12.3611Z" fill="#E5E2E1"/>
</g>
</svg>
