<svg width="41" height="41" viewBox="0 0 41 41" fill="none" xmlns="http://www.w3.org/2000/svg">
<mask id="mask0_22_7" style="mask-type:alpha" maskUnits="userSpaceOnUse" x="0" y="0" width="41" height="41">
<rect x="0.982422" y="0.053894" width="40" height="40" fill="#D9D9D9"/>
</mask>
<g mask="url(#mask0_22_7)">
<path d="M15.5543 33.9918C14.5889 33.9918 13.7626 33.6472 13.0754 32.958C12.3882 32.2688 12.0446 31.4403 12.0446 30.4725C12.0446 29.5046 12.3887 28.6806 13.0771 28.0005C13.7654 27.3203 14.5929 26.9803 15.5595 26.9803C16.5172 26.9803 17.3394 27.3217 18.0261 28.0047C18.7127 28.6877 19.0561 29.5131 19.0561 30.4809C19.0561 31.4487 18.7138 32.2758 18.0292 32.9622C17.3446 33.6486 16.5197 33.9918 15.5543 33.9918ZM26.3993 33.9918C25.4339 33.9918 24.6088 33.6472 23.9239 32.958C23.2391 32.2688 22.8967 31.4403 22.8967 30.4725C22.8967 29.5046 23.2399 28.6806 23.9264 28.0005C24.613 27.3203 25.4382 26.9803 26.4023 26.9803C27.3597 26.9803 28.1833 27.3217 28.8732 28.0047C29.5632 28.6877 29.9081 29.5131 29.9081 30.4809C29.9081 31.4487 29.5636 32.2758 28.8746 32.9622C28.1856 33.6486 27.3605 33.9918 26.3993 33.9918ZM15.5543 23.54C14.5889 23.54 13.7626 23.2054 13.0754 22.5362C12.3882 21.867 12.0446 21.0363 12.0446 20.0443C12.0446 19.0818 12.3887 18.2591 13.0771 17.5763C13.7654 16.8935 14.5929 16.5521 15.5595 16.5521C16.5172 16.5521 17.3394 16.8943 18.0261 17.5788C18.7127 18.2632 19.0561 19.0828 19.0561 20.0374C19.0561 21.0344 18.7138 21.8674 18.0292 22.5364C17.3446 23.2055 16.5197 23.54 15.5543 23.54ZM26.3993 23.54C25.4339 23.54 24.6088 23.2054 23.9239 22.5362C23.2391 21.867 22.8967 21.0363 22.8967 20.0443C22.8967 19.0818 23.2399 18.2591 23.9264 17.5763C24.613 16.8935 25.4382 16.5521 26.4023 16.5521C27.3597 16.5521 28.1833 16.8943 28.8732 17.5788C29.5632 18.2632 29.9081 19.0828 29.9081 20.0374C29.9081 21.0344 29.5636 21.8674 28.8746 22.5364C28.1856 23.2055 27.3605 23.54 26.3993 23.54ZM15.5543 13.1119C14.5889 13.1119 13.7626 12.769 13.0754 12.0833C12.3882 11.3976 12.0446 10.5733 12.0446 9.61042C12.0446 8.6527 12.3887 7.83088 13.0771 7.14496C13.7654 6.45905 14.5929 6.11609 15.5595 6.11609C16.5172 6.11609 17.3394 6.46077 18.0261 7.15013C18.7127 7.83949 19.0561 8.66428 19.0561 9.6245C19.0561 10.5847 18.7138 11.406 18.0292 12.0883C17.3446 12.7707 16.5197 13.1119 15.5543 13.1119ZM26.3993 13.1119C25.4339 13.1119 24.6088 12.769 23.9239 12.0833C23.2391 11.3976 22.8967 10.5733 22.8967 9.61042C22.8967 8.6527 23.2399 7.83088 23.9264 7.14496C24.613 6.45905 25.4382 6.11609 26.4023 6.11609C27.3597 6.11609 28.1833 6.46077 28.8732 7.15013C29.5632 7.83949 29.9081 8.66428 29.9081 9.6245C29.9081 10.5847 29.5636 11.406 28.8746 12.0883C28.1856 12.7707 27.3605 13.1119 26.3993 13.1119Z" fill="#E5E2E1"/>
</g>
</svg>
