<svg width="64" height="64" viewBox="0 0 64 64" fill="none" xmlns="http://www.w3.org/2000/svg">
<path d="M14.0951 9.60438C9.78622 9.60438 6.25235 12.2587 5.0744 15.7788L5 16C6.23375 15.6208 7.52021 15.368 8.81906 15.2005C12.1669 14.7613 16.4014 14.7613 21.3178 14.7613H42.6822C47.5986 14.7613 51.83 14.7613 55.1809 15.2005C56.4829 15.3712 57.7662 15.6177 59 16L58.9287 15.7788C57.7508 12.2587 54.2169 9.60438 49.9049 9.60438H14.0951Z" fill="#FF2056"/>
<path d="M20.9148 1H42.552C43.2712 1 43.823 1 44.3065 1.0474C47.7412 1.39183 50.5528 3.49631 51.7463 6.33073H11.7206C12.914 3.49631 15.7256 1.39183 19.1603 1.0474C19.6377 1 20.1894 1 20.9148 1Z" fill="#FF2056"/>
<path fill-rule="evenodd" clip-rule="evenodd" d="M42.3165 18H21.6835C11.2245 18 5.99186 18 3.05315 21.072C0.114449 24.144 0.805727 28.8874 2.19138 38.3773L3.49954 47.3785C4.5845 54.8204 5.12699 58.543 7.90759 60.7715C10.6913 63 14.7894 63 22.9948 63H41.0052C49.2075 63 53.3118 63 56.0924 60.7715C58.873 58.543 59.4155 54.8204 60.5005 47.3785L61.8086 38.3804C63.1943 28.8874 63.8855 24.144 60.9468 21.072C58.0081 18 52.7755 18 42.3165 18ZM40.0008 43.684C41.7337 42.6071 41.7337 39.8184 40.0008 38.7415L29.5511 32.2364C27.8678 31.1875 25.8002 32.5508 25.8002 34.7077V47.7178C25.8002 49.8747 27.8678 51.2349 29.5511 50.1891L40.0008 43.684Z" fill="#FF2056"/>
<path d="M40.0008 43.684C41.7337 42.6071 41.7337 39.8184 40.0008 38.7415L29.5511 32.2364C27.8678 31.1875 25.8002 32.5508 25.8002 34.7077V47.7178C25.8002 49.8747 27.8678 51.2349 29.5511 50.1891L40.0008 43.684Z" fill="white"/>
</svg>
