<svg width="40" height="40" viewBox="0 0 40 40" fill="none" xmlns="http://www.w3.org/2000/svg">
<mask id="mask0_28_13" style="mask-type:alpha" maskUnits="userSpaceOnUse" x="0" y="0" width="40" height="40">
<rect width="40" height="40" fill="#D9D9D9"/>
</mask>
<g mask="url(#mask0_28_13)">
<path d="M8.50481 22.7349C7.75681 22.7349 7.1143 22.4671 6.57727 21.9315C6.04024 21.3959 5.77173 20.7521 5.77173 20C5.77173 19.2351 6.0399 18.5881 6.57623 18.0589C7.11259 17.5297 7.75737 17.2651 8.51056 17.2651C9.25606 17.2651 9.90152 17.5297 10.4469 18.0589C10.9924 18.5882 11.2651 19.2313 11.2651 19.9883C11.2651 20.7453 10.992 21.3923 10.4459 21.9293C9.89988 22.4664 9.25284 22.7349 8.50481 22.7349ZM20.0118 22.7349C19.2547 22.7349 18.6077 22.4671 18.0707 21.9315C17.5337 21.3959 17.2651 20.7521 17.2651 20C17.2651 19.2351 17.5329 18.5881 18.0685 18.0589C18.6041 17.5297 19.248 17.2651 20.0001 17.2651C20.7649 17.2651 21.412 17.5297 21.9411 18.0589C22.4703 18.5882 22.7349 19.2313 22.7349 19.9883C22.7349 20.7453 22.4703 21.3923 21.9411 21.9293C21.4119 22.4664 20.7688 22.7349 20.0118 22.7349ZM31.4923 22.7349C30.7319 22.7349 30.0822 22.4671 29.5433 21.9315C29.0044 21.3959 28.735 20.7521 28.735 20C28.735 19.2351 29.0057 18.5881 29.5473 18.0589C30.0888 17.5297 30.7397 17.2651 31.5001 17.2651C32.2606 17.2651 32.908 17.5297 33.4424 18.0589C33.9768 18.5882 34.244 19.2313 34.244 19.9883C34.244 20.7453 33.9755 21.3923 33.4385 21.9293C32.9014 22.4664 32.2527 22.7349 31.4923 22.7349Z" fill="#E5E2E1"/>
</g>
</svg>
