<svg width="40" height="40" viewBox="0 0 40 40" fill="none" xmlns="http://www.w3.org/2000/svg">
<mask id="mask0_28_19" style="mask-type:alpha" maskUnits="userSpaceOnUse" x="0" y="0" width="40" height="40">
<rect width="40" height="40" fill="#D9D9D9"/>
</mask>
<g mask="url(#mask0_28_19)">
<path d="M20.0118 34.2283C19.2547 34.2283 18.6077 33.9601 18.0707 33.4238C17.5337 32.8874 17.2651 32.2426 17.2651 31.4894C17.2651 30.7439 17.5329 30.0985 18.0685 29.5531C18.6041 29.0076 19.2479 28.7349 20.0001 28.7349C20.7649 28.7349 21.4119 29.008 21.9411 29.5541C22.4703 30.1001 22.7349 30.7472 22.7349 31.4952C22.7349 32.2432 22.4703 32.8857 21.9411 33.4227C21.4119 33.9598 20.7688 34.2283 20.0118 34.2283ZM20.0118 22.7349C19.2547 22.7349 18.6077 22.4671 18.0707 21.9315C17.5337 21.3959 17.2651 20.7521 17.2651 19.9999C17.2651 19.2351 17.5329 18.5881 18.0685 18.0589C18.6041 17.5297 19.2479 17.2651 20.0001 17.2651C20.7649 17.2651 21.4119 17.5297 21.9411 18.0589C22.4703 18.5881 22.7349 19.2312 22.7349 19.9882C22.7349 20.7453 22.4703 21.3923 21.9411 21.9293C21.4119 22.4663 20.7688 22.7349 20.0118 22.7349ZM20.0118 11.265C19.2547 11.265 18.6077 10.9943 18.0707 10.4527C17.5337 9.91123 17.2651 9.26027 17.2651 8.49986C17.2651 7.73944 17.5329 7.09202 18.0685 6.55761C18.6041 6.02319 19.2479 5.75598 20.0001 5.75598C20.7649 5.75598 21.4119 6.0245 21.9411 6.56152C22.4703 7.09858 22.7349 7.74731 22.7349 8.50773C22.7349 9.26815 22.4703 9.9178 21.9411 10.4567C21.4119 10.9956 20.7688 11.265 20.0118 11.265Z" fill="#E5E2E1"/>
</g>
</svg>
