<svg width="40" height="40" viewBox="0 0 40 40" fill="none" xmlns="http://www.w3.org/2000/svg">
<mask id="mask0_27_13" style="mask-type:alpha" maskUnits="userSpaceOnUse" x="0" y="0" width="40" height="40">
<rect width="40" height="40" fill="#D9D9D9"/>
</mask>
<g mask="url(#mask0_27_13)">
<path d="M15.3436 37.3261L14.5344 31.8363C14.1669 31.7075 13.776 31.5231 13.3617 31.2832C12.9475 31.0433 12.5831 30.7999 12.2687 30.5531L7.14977 32.8496L2.44202 24.5876L7.0296 21.1999C6.99899 21.0207 6.97906 20.8207 6.96981 20.5999C6.96053 20.3791 6.95589 20.1791 6.95589 20C6.95589 19.8208 6.96053 19.6209 6.96981 19.4001C6.97906 19.1792 6.99899 18.9792 7.0296 18.8001L2.44202 15.3967L7.14977 7.18172L12.3158 9.45468C12.6198 9.21835 12.9746 8.98414 13.3804 8.75206C13.7862 8.51997 14.1709 8.34354 14.5344 8.22277L15.3436 2.65814H24.6564L25.4656 8.19502C25.8332 8.3343 26.2261 8.51535 26.6443 8.73818C27.0626 8.96102 27.4249 9.19985 27.7313 9.45468L32.866 7.18172L37.558 15.3967L32.9469 18.7446C32.9775 18.9422 33 19.1515 33.0145 19.3723C33.029 19.5931 33.0363 19.8023 33.0363 20C33.0363 20.1976 33.0277 20.4023 33.0106 20.6138C32.9935 20.8254 32.9676 21.03 32.933 21.2276L37.5441 24.5876L32.8286 32.8496L27.6999 30.5531C27.3855 30.7999 27.03 31.0453 26.6335 31.2893C26.2369 31.5332 25.8477 31.7156 25.4656 31.8363L24.6564 37.3261H15.3436ZM19.9729 25.5555C21.5099 25.5555 22.8201 25.0139 23.9034 23.9305C24.9867 22.8472 25.5284 21.537 25.5284 20C25.5284 18.4629 24.9867 17.1528 23.9034 16.0694C22.8201 14.9861 21.5099 14.4444 19.9729 14.4444C18.4318 14.4444 17.1206 14.9861 16.0393 16.0694C14.958 17.1528 14.4173 18.4629 14.4173 20C14.4173 21.537 14.958 22.8472 16.0393 23.9305C17.1206 25.0139 18.4318 25.5555 19.9729 25.5555Z" fill="#E5E2E1"/>
</g>
</svg>
