<svg width="30" height="30" viewBox="0 0 30 30" fill="none" xmlns="http://www.w3.org/2000/svg">
<mask id="mask0_8_5462" style="mask-type:alpha" maskUnits="userSpaceOnUse" x="0" y="0" width="30" height="30">
<rect width="30" height="30" fill="#D9D9D9"/>
</mask>
<g mask="url(#mask0_8_5462)">
<path d="M22.1499 27.0979H8.17155V10.4611L16.662 1.76227L18.2472 3.06027C18.48 3.24354 18.651 3.46984 18.7603 3.73917C18.8696 4.00851 18.9243 4.30305 18.9243 4.6228V4.8062L17.5696 10.4611H26.3546C27.0729 10.4611 27.7135 10.7426 28.2765 11.3055C28.8394 11.8685 29.1209 12.5052 29.1209 13.2156V14.8682C29.1209 15.0932 29.0934 15.3479 29.0385 15.6323C28.9835 15.9167 28.9089 16.1616 28.8147 16.3669L25.0656 25.1409C24.8389 25.6892 24.4484 26.1524 23.8942 26.5306C23.34 26.9088 22.7585 27.0979 22.1499 27.0979ZM6.0882 10.4611V27.0979H1.82874V10.4611H6.0882Z" fill="white"/>
</g>
</svg>
