<svg width="30" height="30" viewBox="0 0 30 30" fill="none" xmlns="http://www.w3.org/2000/svg">
<mask id="mask0_8_5456" style="mask-type:alpha" maskUnits="userSpaceOnUse" x="0" y="0" width="30" height="30">
<rect width="30" height="30" fill="#D9D9D9"/>
</mask>
<g mask="url(#mask0_8_5456)">
<path d="M7.53805 4.26221H21.5281V20.9108L13.0377 29.5978L11.4407 28.2998C11.2079 28.1244 11.0389 27.9001 10.9335 27.6268C10.8281 27.3536 10.7754 27.061 10.7754 26.7491V26.5539L12.1183 20.9108H3.33333C2.62289 20.9108 1.98619 20.6293 1.42323 20.0663C0.860276 19.5034 0.578796 18.8627 0.578796 18.1445V16.5036C0.578796 16.2787 0.604317 16.024 0.655359 15.7396C0.706359 15.4552 0.778963 15.2064 0.873171 14.9932L4.63408 6.21921C4.85297 5.67875 5.23953 5.21747 5.79373 4.83536C6.34794 4.45326 6.92936 4.26221 7.53805 4.26221ZM23.6115 20.9108V4.26221H27.871V20.9108H23.6115Z" fill="white"/>
</g>
</svg>
